ffmpeg started on 2016-12-04 at 22:51:13
Report written to "Output/x264/results/ffmpeg/crowd_run_2160p50veryfast2500k.log"
Command line:
Tools/ffmpeg/ffmpeg -benchmark -y -i Input/y4m/crowd_run_2160p50.y4m -c:v libx264 -preset veryfast -b:v 2500k -an Output/x264/encoded/crowd_run_2160p50veryfast2500k.mkv
ffmpeg version N-82227-gdb23fde Copyright (c) 2000-2016 the FFmpeg developers
  built with gcc 5.4.0 (Ubuntu 5.4.0-6ubuntu1~16.04.2) 20160609
  configuration: --prefix=/home/jaroslav/ffmpeg_build --pkg-config-flags=--static --extra-cflags=-I/home/jaroslav/ffmpeg_build/include --extra-ldflags=-L/home/jaroslav/ffmpeg_build/lib --bindir=/home/jaroslav/bin --enable-gpl --enable-libass --enable-libfdk-aac --enable-libfreetype --enable-libmp3lame --enable-libopus --enable-libtheora --enable-libvorbis --enable-libvpx --enable-libx264 --enable-libx265 --enable-nvenc --enable-libmfx --enable-libxvid --enable-libgsm --enable-libopencore-amrnb --enable-version3 --enable-nonfree
  libavutil      55. 35.100 / 55. 35.100
  libavcodec     57. 66.101 / 57. 66.101
  libavformat    57. 57.100 / 57. 57.100
  libavdevice    57.  2.100 / 57.  2.100
  libavfilter     6. 66.100 /  6. 66.100
  libswscale      4.  3.100 /  4.  3.100
  libswresample   2.  4.100 /  2.  4.100
  libpostproc    54.  2.100 / 54.  2.100
Input #0, yuv4mpegpipe, from 'Input/y4m/crowd_run_2160p50.y4m':
  Duration: 00:00:10.00, start: 0.000000, bitrate: 4976642 kb/s
    Stream #0:0: Video: rawvideo (I420 / 0x30323449), yuv420p(progressive), 3840x2160, SAR 1:1 DAR 16:9, 50 fps, 50 tbr, 50 tbn, 50 tbc
[libx264 @ 0x36d51c0] using SAR=1/1
[libx264 @ 0x36d51c0] using cpu capabilities: MMX2 SSE2Fast SSSE3 SSE4.2 AVX FMA3 AVX2 LZCNT BMI2
[libx264 @ 0x36d51c0] profile High, level 5.2
[libx264 @ 0x36d51c0] 264 - core 148 - H.264/MPEG-4 AVC codec - Copyleft 2003-2016 - http://www.videolan.org/x264.html - options: cabac=1 ref=1 deblock=1:0:0 analyse=0x3:0x113 me=hex subme=2 psy=1 psy_rd=1.00:0.00 mixed_ref=0 me_range=16 chroma_me=1 trellis=0 8x8dct=1 cqm=0 deadzone=21,11 fast_pskip=1 chroma_qp_offset=0 threads=6 lookahead_threads=2 sliced_threads=0 nr=0 decimate=1 interlaced=0 bluray_compat=0 constrained_intra=0 bframes=3 b_pyramid=2 b_adapt=1 b_bias=0 direct=1 weightb=1 open_gop=0 weightp=1 keyint=250 keyint_min=25 scenecut=40 intra_refresh=0 rc_lookahead=10 rc=abr mbtree=1 bitrate=2500 ratetol=1.0 qcomp=0.60 qpmin=0 qpmax=69 qpstep=4 ip_ratio=1.40 aq=1:1.00
Output #0, matroska, to 'Output/x264/encoded/crowd_run_2160p50veryfast2500k.mkv':
  Metadata:
    encoder         : Lavf57.57.100
    Stream #0:0: Video: h264 (libx264) (H264 / 0x34363248), yuv420p, 3840x2160 [SAR 1:1 DAR 16:9], q=-1--1, 2500 kb/s, 50 fps, 1k tbn, 50 tbc
    Metadata:
      encoder         : Lavc57.66.101 libx264
    Side data:
      cpb: bitrate max/min/avg: 0/0/2500000 buffer size: 0 vbv_delay: -1
Stream mapping:
  Stream #0:0 -> #0:0 (rawvideo (native) -> h264 (libx264))
Press [q] to stop, [?] for help
frame=   14 fps=0.0 q=0.0 size=       0kB time=00:00:00.00 bitrate=N/A speed=   0x    frame=   24 fps= 18 q=47.0 size=       1kB time=00:00:00.02 bitrate= 279.2kbits/s speed=0.0155x    frame=   39 fps= 21 q=60.0 size=       1kB time=00:00:00.32 bitrate=  18.3kbits/s speed=0.173x    frame=   44 fps= 19 q=61.0 size=       1kB time=00:00:00.42 bitrate=  13.9kbits/s speed=0.178x    frame=   60 fps= 21 q=64.0 size=       1kB time=00:00:00.74 bitrate=   7.9kbits/s speed=0.256x    frame=   75 fps= 22 q=64.0 size=       1kB time=00:00:01.04 bitrate=   5.6kbits/s speed=0.305x    frame=   91 fps= 23 q=63.0 size=       1kB time=00:00:01.36 bitrate=   4.3kbits/s speed=0.345x    frame=  106 fps= 24 q=63.0 size=       1kB time=00:00:01.66 bitrate=   3.5kbits/s speed=0.374x    frame=  122 fps= 24 q=63.0 size=       1kB time=00:00:01.98 bitrate=   3.0kbits/s speed=0.398x    frame=  138 fps= 25 q=63.0 size=       1kB time=00:00:02.30 bitrate=   2.5kbits/s speed=0.417x    frame=  153 fps= 25 q=63.0 size=       1kB time=00:00:02.60 bitrate=   2.3kbits/s speed=0.432x    frame=  158 fps= 24 q=63.0 size=       1kB time=00:00:02.70 bitrate=   2.2kbits/s speed=0.414x    frame=  164 fps= 22 q=63.0 size=       1kB time=00:00:02.82 bitrate=   2.1kbits/s speed=0.381x    frame=  170 fps= 21 q=63.0 size=       1kB time=00:00:02.94 bitrate=   2.0kbits/s speed=0.371x    frame=  175 fps= 21 q=63.0 size=       1kB time=00:00:03.04 bitrate=   1.9kbits/s speed=0.358x    frame=  182 fps= 20 q=63.0 size=       1kB time=00:00:03.18 bitrate=   1.8kbits/s speed=0.353x    frame=  188 fps= 20 q=63.0 size=       1kB time=00:00:03.30 bitrate=   1.8kbits/s speed=0.347x    frame=  203 fps= 20 q=63.0 size=       1kB time=00:00:03.60 bitrate=   1.6kbits/s speed=0.359x    frame=  218 fps= 21 q=63.0 size=       1kB time=00:00:03.90 bitrate=   1.5kbits/s speed=0.37x    frame=  233 fps= 21 q=63.0 size=       1kB time=00:00:04.20 bitrate=   1.4kbits/s speed=0.379x    frame=  248 fps= 21 q=63.0 size=       1kB time=00:00:04.50 bitrate=   1.3kbits/s speed=0.388x    frame=  263 fps= 22 q=63.0 size=       1kB time=00:00:04.80 bitrate=   1.2kbits/s speed=0.396x    frame=  269 fps= 21 q=63.0 size=       1kB time=00:00:04.92 bitrate=   1.2kbits/s speed=0.384x    frame=  280 fps= 21 q=64.0 size=    1667kB time=00:00:05.14 bitrate=2656.0kbits/s speed=0.386x    frame=  286 fps= 21 q=64.0 size=    1667kB time=00:00:05.26 bitrate=2595.5kbits/s speed=0.379x    frame=  288 fps= 20 q=64.0 size=    1667kB time=00:00:05.30 bitrate=2575.9kbits/s speed=0.363x    frame=  303 fps= 20 q=64.0 size=    1667kB time=00:00:05.60 bitrate=2437.9kbits/s speed=0.37x    frame=  308 fps= 19 q=64.0 size=    1667kB time=00:00:05.70 bitrate=2395.1kbits/s speed=0.356x    frame=  316 fps= 19 q=64.0 size=    1667kB time=00:00:05.86 bitrate=2329.8kbits/s speed=0.353x    frame=  328 fps= 19 q=64.0 size=    1667kB time=00:00:06.10 bitrate=2238.1kbits/s speed=0.352x    frame=  334 fps= 19 q=64.0 size=    1667kB time=00:00:06.22 bitrate=2194.9kbits/s speed=0.348x    frame=  338 fps= 18 q=64.0 size=    1667kB time=00:00:06.30 bitrate=2167.1kbits/s speed=0.337x    frame=  342 fps= 18 q=64.0 size=    1667kB time=00:00:06.38 bitrate=2139.9kbits/s speed=0.329x    frame=  348 fps= 17 q=64.0 size=    1667kB time=00:00:06.50 bitrate=2100.4kbits/s speed=0.326x    frame=  353 fps= 17 q=64.0 size=    1667kB time=00:00:06.60 bitrate=2068.6kbits/s speed=0.318x    frame=  359 fps= 16 q=64.0 size=    1667kB time=00:00:06.72 bitrate=2031.6kbits/s speed=0.309x    frame=  362 fps= 16 q=64.0 size=    1667kB time=00:00:06.78 bitrate=2013.7kbits/s speed=0.303x    frame=  368 fps= 16 q=64.0 size=    1667kB time=00:00:06.90 bitrate=1978.7kbits/s speed=0.302x    frame=  373 fps= 16 q=64.0 size=    1667kB time=00:00:07.00 bitrate=1950.4kbits/s speed=0.295x    frame=  374 fps= 15 q=64.0 size=    1667kB time=00:00:07.02 bitrate=1944.8kbits/s speed=0.287x    frame=  375 fps= 15 q=64.0 size=    1667kB time=00:00:07.04 bitrate=1939.3kbits/s speed=0.279x    frame=  378 fps= 15 q=64.0 size=    1667kB time=00:00:07.10 bitrate=1922.9kbits/s speed=0.276x    frame=  379 fps= 14 q=64.0 size=    1667kB time=00:00:07.12 bitrate=1917.5kbits/s speed=0.271x    frame=  381 fps= 14 q=64.0 size=    1667kB time=00:00:07.16 bitrate=1906.8kbits/s speed=0.265x    frame=  383 fps= 14 q=64.0 size=    1667kB time=00:00:07.20 bitrate=1896.2kbits/s speed=0.256x    frame=  386 fps= 13 q=64.0 size=    1667kB time=00:00:07.26 bitrate=1880.6kbits/s speed=0.251x    frame=  391 fps= 13 q=64.0 size=    1667kB time=00:00:07.36 bitrate=1855.0kbits/s speed=0.248x    frame=  392 fps= 13 q=64.0 size=    1667kB time=00:00:07.38 bitrate=1850.0kbits/s speed=0.243x    frame=  395 fps= 13 q=64.0 size=    1667kB time=00:00:07.44 bitrate=1835.1kbits/s speed=0.239x    frame=  397 fps= 13 q=64.0 size=    1667kB time=00:00:07.48 bitrate=1825.3kbits/s speed=0.236x    frame=  400 fps= 12 q=64.0 size=    1667kB time=00:00:07.54 bitrate=1810.7kbits/s speed=0.232x    frame=  414 fps= 12 q=64.0 size=    1667kB time=00:00:07.82 bitrate=1745.9kbits/s speed=0.235x    frame=  429 fps= 13 q=64.0 size=    1667kB time=00:00:08.12 bitrate=1681.4kbits/s speed=0.24x    frame=  444 fps= 13 q=64.0 size=    1667kB time=00:00:08.42 bitrate=1621.5kbits/s speed=0.245x    frame=  450 fps= 13 q=64.0 size=    1667kB time=00:00:08.54 bitrate=1598.7kbits/s speed=0.245x    frame=  458 fps= 13 q=64.0 size=    1667kB time=00:00:08.70 bitrate=1569.3kbits/s speed=0.243x    frame=  470 fps= 13 q=64.0 size=    1667kB time=00:00:08.94 bitrate=1527.2kbits/s speed=0.244x    frame=  475 fps= 13 q=64.0 size=    1667kB time=00:00:09.04 bitrate=1510.3kbits/s speed=0.241x    frame=  481 fps= 13 q=64.0 size=    1667kB time=00:00:09.16 bitrate=1490.5kbits/s speed=0.24x    frame=  484 fps= 12 q=64.0 size=    1667kB time=00:00:09.22 bitrate=1480.8kbits/s speed=0.238x    frame=  490 fps= 12 q=64.0 size=    1667kB time=00:00:09.34 bitrate=1461.8kbits/s speed=0.238x    frame=  497 fps= 12 q=64.0 size=    1667kB time=00:00:09.48 bitrate=1440.2kbits/s speed=0.238x    frame=  500 fps= 12 q=-1.0 Lsize=    3238kB time=00:00:09.94 bitrate=2668.1kbits/s speed=0.247x    
video:3234kB audio:0kB subtitle:0kB other streams:0kB global headers:0kB muxing overhead: 0.131012%
bench: utime=53.108s
bench: maxrss=1081144kB
[libx264 @ 0x36d51c0] frame I:2     Avg QP:46.46  size: 82178
[libx264 @ 0x36d51c0] frame P:126   Avg QP:50.92  size: 15088
[libx264 @ 0x36d51c0] frame B:372   Avg QP:50.95  size:  3347
[libx264 @ 0x36d51c0] consecutive B-frames:  0.8%  0.0%  0.0% 99.2%
[libx264 @ 0x36d51c0] mb I  I16..4: 55.8% 43.6%  0.5%
[libx264 @ 0x36d51c0] mb P  I16..4:  7.6%  2.2%  0.0%  P16..4:  8.7%  1.5%  0.4%  0.0%  0.0%    skip:79.5%
[libx264 @ 0x36d51c0] mb B  I16..4:  0.0%  0.0%  0.0%  B16..8:  3.5%  0.1%  0.0%  direct: 0.7%  skip:95.6%  L0:47.3% L1:52.7% BI: 0.1%
[libx264 @ 0x36d51c0] final ratefactor: 55.41
[libx264 @ 0x36d51c0] 8x8 transform intra:25.6% inter:72.5%
[libx264 @ 0x36d51c0] coded y,uvDC,uvAC intra: 7.8% 45.1% 1.2% inter: 0.1% 1.4% 0.0%
[libx264 @ 0x36d51c0] i16 v,h,dc,p: 71% 19%  9%  1%
[libx264 @ 0x36d51c0] i8 v,h,dc,ddl,ddr,vr,hd,vl,hu: 11% 11% 56%  4%  3%  4%  4%  4%  4%
[libx264 @ 0x36d51c0] i4 v,h,dc,ddl,ddr,vr,hd,vl,hu: 23% 18% 16%  9%  9%  7%  6%  7%  5%
[libx264 @ 0x36d51c0] i8c dc,h,v,p: 98%  1%  1%  0%
[libx264 @ 0x36d51c0] Weighted P-Frames: Y:1.6% UV:0.0%
[libx264 @ 0x36d51c0] kb/s:2648.37
